<svg version="1.1" xmlns="http://www.w3.org/2000/svg" style="display: block;" viewBox="0 0 2048 2048" width="1024" height="1024" preserveAspectRatio="none">
<defs>
	<linearGradient id="Gradient1" gradientUnits="userSpaceOnUse" x1="159.344" y1="2057.4" x2="165.411" y2="2005.29">
		<stop class="stop0" offset="0" stop-opacity="1" stop-color="rgb(175,173,168)"/>
		<stop class="stop1" offset="1" stop-opacity="1" stop-color="rgb(217,217,209)"/>
	</linearGradient>
</defs>
<path transform="translate(0,0)" fill="rgb(253,252,244)" d="M 0 0 L 2048 0 L 2048 2048 L 327.959 2048 L 68.8882 2048 L 0 2048 L 0 2041.06 L 0 2004.51 L 0 0 z"/>
<path transform="translate(0,0)" fill="url(#Gradient1)" d="M 0 2004.51 L 30.4484 2004.49 C 30.9699 2003.24 31.271 2002.24 31.5697 2000.94 L 33.9991 2000.57 C 35.3945 2001.98 35.9868 2003.28 36.8355 2005.04 C 37.8595 2007.16 38.4298 2008.27 40.5501 2009.49 L 42.804 2009.42 L 43.3202 2008.1 C 44.4649 2005.23 45.1978 2002.82 47.653 2000.78 L 49.9043 2001 C 51.047 2003.2 51.2895 2004.92 51.6216 2007.34 C 52.7027 2006.68 55.3221 2004.59 56.4323 2004.4 C 59.6778 2003.83 67.0116 2008.36 69.9769 2007.2 C 70.3564 2007.05 72.062 2004.55 72.4893 2004.34 C 74.3997 2003.4 78.1829 2005.38 80.7874 2004.21 C 80.6501 2001.61 80.0816 2001.54 81.9127 1999.49 L 84.1978 2000.04 C 84.7902 2002.05 85.2766 2004.05 85.7064 2006.11 C 87.4699 2006.71 87.2546 2006.92 89.1549 2006.28 C 91.8872 2005.35 95.3392 2003.73 98.158 2004.85 C 99.5396 2005.4 100.926 2006.47 102.145 2007.32 C 106.135 2007.42 109.152 2003.66 111.43 2006.08 C 112.505 2007.22 113.376 2009.03 114.189 2010.39 L 115.407 2009.86 C 116.143 2007.29 116.053 2005.81 118.238 2004.12 C 121.756 2005.34 120.889 2007.97 124.804 2008.27 C 127.529 2006.66 128.585 2003.77 129.992 2001.06 C 132.547 1999.5 133.218 1999.61 136.256 1999.6 C 138.543 2000.65 139.503 2001.66 141.084 2003.49 C 142.061 2004.63 143.154 2005.57 144.286 2006.54 C 145.267 2004.41 145.072 2002.84 145.054 2000.54 L 146.38 1999.37 L 148.756 1999.95 L 149.209 2004.85 C 151.698 2005.17 153.869 2004.99 156.354 2004.78 C 159.156 2007.97 160.85 2011.4 164.78 2013.33 C 167.684 2013.47 168.91 2013.29 171.43 2011.82 C 178.101 2002.46 172.855 1989.16 188.44 1986.87 C 191.008 1986.49 193.369 1986.57 195.945 1986.78 C 197.52 1988.49 197.343 1987.64 197.304 1989.64 C 197.204 1994.61 191.217 2001.44 192.564 2005.86 C 195.863 2005.89 199.884 2005.49 202.875 2006.93 L 203.694 2008.54 C 202.675 2011.06 201.482 2013.33 200.144 2015.68 L 200.715 2016.9 C 204.884 2014.11 207.606 2009.4 209.392 2004.81 L 208.97 2003.23 C 208.597 2003.21 208.225 2003.19 207.853 2003.16 C 204.708 2002.93 202.892 2002.72 200.254 2000.97 C 199.041 1998.7 198.571 1997.98 199.215 1995.31 C 200.02 1991.96 203.84 1988.76 206.851 1987.46 C 211.29 1985.56 216.307 1985.52 220.78 1987.34 C 225.18 1989.11 228.905 1992.17 230.736 1996.64 C 232.47 2000.86 232.326 2005.45 230.388 2009.58 C 228.783 2013 226.095 2015.23 223.395 2017.72 C 223.159 2017.94 222.957 2018.19 222.739 2018.43 C 226.689 2019.01 234.469 2021.35 237.677 2019.29 C 238.746 2015.36 236.327 2003.17 239.315 2001.44 C 240.712 2000.63 241.631 2000.66 243.193 2000.63 C 244.955 2002.06 245.121 2002.22 245.381 2004.59 C 245.785 2008.28 244.264 2012.54 246.298 2015.8 L 248.003 2015.65 C 249.582 2012.06 250.215 2007.45 253.185 2004.83 C 258.238 2003.5 260.483 2005.02 264.78 2007.5 L 265.921 2008.16 C 271.086 2006.46 271.71 2001.95 278.433 2004.59 C 279.608 2005.05 280.963 2006.25 281.928 2006.96 C 282.294 2007.23 282.67 2007.49 283.039 2007.76 L 283.713 2008.25 C 284.919 2007 286.156 2005.78 287.423 2004.59 C 291.228 2004.66 294.41 2005.11 298.071 2006.15 C 299.889 2008.19 300.353 2008.8 300.468 2011.69 C 300.595 2014.87 298.279 2019.07 295.794 2020.93 C 294.282 2022.07 292.936 2022.19 291.135 2022.37 C 288.465 2021.62 287.46 2020.85 285.599 2018.95 C 284.579 2017.91 285.046 2018.35 283.534 2017.31 C 283.597 2022.08 280.763 2024.04 281.461 2027.82 C 292.209 2033.86 305.042 2035.74 316.185 2040.9 C 319.981 2042.66 322.917 2045.37 326.473 2047.37 C 326.942 2047.63 327.464 2047.79 327.959 2048 L 68.8882 2048 L 0 2048 L 0 2041.06 L 0 2004.51 z"/>
<path transform="translate(0,0)" fill="rgb(150,148,144)" d="M 0 2041.06 C 20.3076 2041.62 84.9432 2039.54 100.147 2045.69 C 89.9474 2047.93 78.8528 2045.04 68.8882 2048 L 0 2048 L 0 2041.06 z"/>
<path transform="translate(0,0)" fill="rgb(252,252,246)" d="M 204.885 1988.78 C 209.326 1988.63 216.048 1987.9 220.218 1989.62 C 224.391 1991.34 228.318 1994.33 230.063 1998.6 C 231.297 2001.62 231.295 2004.83 229.895 2007.78 C 227.298 2013.25 222.264 2016.63 216.793 2018.72 C 212.092 2019.57 207.318 2019.82 202.559 2020.18 C 206.038 2013.63 209.979 2007.41 213.93 2001.14 L 199.5 2001 C 200.994 1996.76 202.904 1992.81 204.885 1988.78 z"/>
<path transform="translate(0,0)" fill="rgb(252,252,246)" d="M 182.308 1988.62 L 196.4 1988.8 L 189.276 2007.42 L 201.797 2007.74 L 193.699 2027.51 C 192.85 2027.66 193.427 2027.63 192.018 2027.08 C 191.986 2024.84 191.852 2022.97 191.296 2020.8 C 186.118 2018.42 175.312 2019.9 169.526 2020 C 173.175 2009.41 178.007 1998.98 182.308 1988.62 z"/>
<path transform="translate(0,0)" fill="rgb(252,252,246)" d="M 269.568 2006.14 C 273.718 2006.12 277.869 2006.08 282.018 2006.01 C 282.084 2010.42 282.389 2015.11 281.905 2019.49 C 281.535 2022.85 280.297 2024.32 277.738 2026.35 C 274.256 2027.15 272.174 2026.56 268.798 2025.53 L 268.28 2022.98 L 269.415 2021.87 C 271.848 2022.37 273.941 2022.74 276.442 2022.74 L 277.496 2021.09 L 276.999 2019.91 C 274.817 2019.98 272.754 2019.89 270.58 2019.69 C 268.458 2018.04 267.887 2017.65 267.314 2014.87 C 266.657 2011.68 268.053 2008.81 269.568 2006.14 z"/>
<path transform="translate(0,0)" fill="rgb(252,252,246)" d="M 288.466 2006.41 C 290.853 2005.28 293.66 2005.54 295.808 2007.07 C 297.955 2008.6 299.107 2011.17 298.821 2013.8 C 298.535 2016.42 296.856 2018.68 294.429 2019.72 C 290.771 2021.28 286.539 2019.62 284.914 2015.99 C 283.288 2012.36 284.868 2008.1 288.466 2006.41 z"/>
<path transform="translate(0,0)" fill="rgb(214,212,204)" d="M 57.745 2008.49 C 59.2496 2008.42 60.8405 2008.18 62.2402 2008.9 C 64.9824 2010.31 65.9875 2012.71 66.5267 2015.53 C 65.5471 2018.38 65.0303 2018.77 62.7214 2020.76 C 59.7036 2020.7 57.0736 2020.65 54.5994 2018.59 C 52.3203 2016.7 52.2376 2015.86 51.9046 2013.11 C 53.5699 2010.02 54.6439 2009.96 57.745 2008.49 z"/>
<path transform="translate(0,0)" fill="rgb(214,212,204)" d="M 73.2554 2008.3 C 74.9793 2008.28 77.2915 2008.01 78.8736 2008.9 C 81.831 2010.56 84.0239 2013.29 84.684 2016.56 C 83.6309 2019.11 83.1856 2019.16 80.8 2020.61 C 77.1854 2020.65 74.9267 2020.48 71.6208 2018.96 C 70.0449 2016.66 70.2656 2016.21 70.3407 2013.37 C 71.4576 2012.13 72.04 2011.29 72.7057 2009.72 C 72.9026 2009.25 73.0722 2008.77 73.2554 2008.3 z"/>
<path transform="translate(0,0)" fill="rgb(252,252,246)" d="M 240.169 2001.35 L 243.128 2002.87 C 244 2004.95 244.175 2006.2 243.945 2008.4 C 243.717 2010.57 243.669 2012.48 243.771 2014.66 C 245.694 2017.4 247.876 2016.8 250.425 2019.07 C 248.68 2019.43 246.628 2020.03 244.857 2020.05 C 242.285 2020.08 241.9 2019.55 240.222 2017.87 C 238.428 2012.9 239.752 2006.56 240.169 2001.35 z"/>
<path transform="translate(0,0)" fill="rgb(214,212,204)" d="M 139.888 2008.11 C 141.366 2008.24 142.76 2008.51 144.215 2008.78 C 145.496 2010.54 146.304 2011.56 146.844 2013.71 C 146.963 2014.18 146.97 2014.69 147.141 2015.14 C 147.989 2017.4 147.665 2012.76 147.587 2017.7 L 145.302 2018.45 C 143.776 2019.49 141.996 2020.55 140.105 2020.53 C 138.631 2020.53 139.032 2020.3 137.886 2018.89 C 137.782 2016.91 137.603 2015.66 138.474 2013.83 C 139.159 2012.39 139.379 2011.65 139.61 2010.09 L 139.888 2008.11 z"/>
<path transform="translate(0,0)" fill="rgb(234,99,78)" d="M 426.772 845.663 C 427.283 835.469 428.044 820.596 436.073 813.264 C 437.681 811.796 436.882 812.218 439.071 811.97 C 441.905 816.797 437.136 842.21 442.411 843.078 C 448.074 844.01 461.365 835.72 465.548 832.168 C 483.081 817.279 473.16 800.852 481.09 790.166 C 483.929 791.009 485.303 794.207 486.666 796.759 C 491.97 806.69 492.374 822.236 488.83 832.694 C 487.031 838.003 483.982 842.995 481.072 847.766 C 497.933 846.451 516.966 846.894 528.95 832.831 C 541.939 817.586 537.059 799.504 541.968 792.262 C 544.336 792.823 545.144 794.072 546.32 796.124 C 553.161 808.069 553.67 826.841 549.425 839.721 C 545.361 852.049 536.301 861.491 524.658 867.032 C 510.566 873.738 493.231 874.829 477.854 876.229 C 475.115 876.478 469.31 876.225 466.981 877.155 C 466.32 877.419 465.931 878.116 465.407 878.596 C 464.795 881.352 464.974 882.59 465.904 885.247 C 470.413 887.684 509.524 877.472 513.883 894.933 C 514.272 896.494 513.879 897.925 512.945 899.263 C 510.19 903.212 503.427 904.632 498.947 904.709 C 494.325 904.788 489.645 904.501 485.024 904.314 C 513.437 941.073 521.371 944.487 566.471 952.347 C 581.006 954.88 595.521 958.357 610.151 960.192 C 690.329 970.25 754.137 919.062 815.768 997.89 C 827.399 1012.77 836.309 1034.89 833.874 1054 C 833.088 1060.17 831.151 1065.41 828.173 1070.83 C 826.24 1064.81 825.751 1056.74 823.295 1051.3 C 820.999 1049 820.164 1046.33 819.107 1043.33 L 818.708 1042.17 L 817.693 1042.14 C 817.417 1042.83 817.097 1043.59 816.909 1044.3 C 816.281 1046.68 816.278 1047.96 814.906 1050.09 C 814.631 1050.52 814.31 1050.91 814.012 1051.33 C 809.378 1086.76 790.021 1122.48 814.642 1155.33 C 819.616 1161.96 825.773 1166.9 832.143 1172.13 C 832.063 1192.17 826.436 1211.58 825.502 1231.48 C 824.85 1245.38 827.205 1258.16 830.143 1271.65 L 814.336 1280.41 L 816.851 1294.54 C 802.976 1294.91 788.953 1295.22 775.112 1293.98 C 778.66 1283.33 781.852 1278.31 789.749 1270.43 C 791.532 1268.65 793.925 1266.65 795.11 1264.44 C 797.384 1260.21 798.633 1254.08 799.733 1249.42 C 803.839 1232.05 805.823 1215.07 797.846 1198.4 C 791.934 1186.05 781.247 1176.91 772.296 1166.83 C 764.181 1157.69 756.197 1147.86 749.107 1137.91 C 745.865 1148.01 743.883 1157.96 744.503 1168.63 C 745.032 1177.7 751.794 1194.88 749.26 1202.45 C 741.581 1225.38 705.287 1227.51 704.607 1272.17 C 699.771 1274.04 695.116 1275.68 690.063 1276.89 C 689.868 1280.89 689.769 1284.92 689.377 1288.91 C 681.031 1289.07 660.03 1291.35 653.107 1287.72 C 652.212 1285.34 652.337 1284.05 653.282 1281.65 C 655.86 1275.11 662.531 1268.79 667.222 1263.63 C 681.96 1247.44 707.69 1223.28 709.909 1200.3 C 710.59 1193.26 708.547 1186.09 706.088 1179.55 C 702.358 1169.62 698.547 1158.88 693.854 1149.39 C 628.256 1164.39 624.11 1154.28 563.439 1142.93 C 561.87 1152.03 560.151 1161.09 560.414 1170.36 C 560.644 1178.44 562.162 1186.97 561.595 1194.99 C 560.983 1203.67 556.183 1211.68 558.843 1220.5 C 561.276 1228.56 581.53 1251.61 572.779 1258.25 C 569.261 1260.92 563.827 1262.72 559.749 1264.35 C 562.567 1269.13 565.732 1273.56 566.053 1279.24 C 564.965 1281.84 564.846 1282.49 561.974 1283.5 C 555.87 1285.63 548.239 1283.18 541.682 1285.2 C 540.375 1287.15 539.855 1288.89 539.18 1291.11 C 532.825 1295.82 506.971 1293.73 498.324 1293.11 C 504.05 1273.58 516.307 1270.87 523.802 1255.62 C 533.531 1235.83 523.943 1216.2 522.483 1196.26 C 521.992 1189.55 522.926 1182.57 523.245 1175.85 C 523.875 1162.59 521.341 1149.06 517.158 1136.5 C 516.891 1136.24 516.628 1135.97 516.357 1135.71 C 506.837 1126.62 494.818 1121.54 487.028 1110.45 C 476.391 1095.31 475.137 1076.55 468.762 1059.76 C 464.528 1048.6 454.865 1038.45 448.959 1027.97 C 439.609 1011.38 434.719 988.911 420.964 975.325 C 404.771 974.516 395.666 973.396 382.302 963.129 C 374.49 964.329 361.666 968.117 355.01 962.613 C 352.584 960.606 351.945 957.492 351.223 954.583 C 345.508 953.827 339.956 953.142 334.436 951.407 C 333.276 942.754 331.398 930.449 336.972 922.991 C 346.007 910.902 365.137 910.425 377.26 902.86 C 386.213 897.273 389.335 888.063 396.984 881.6 C 404.073 875.61 413.376 872.847 421.952 869.67 C 414.691 858.441 401.135 843.773 404.434 829.264 C 405.161 826.07 406.568 824.287 408.851 822.026 L 410.426 821.722 C 416.495 829.548 419.727 838.28 426.772 845.663 z"/>
<path transform="translate(0,0)" fill="rgb(214,212,204)" d="M 813.973 1015.64 C 817.771 1027.26 821.928 1039.11 823.295 1051.3 C 820.999 1049 820.164 1046.33 819.107 1043.33 L 818.708 1042.17 L 817.693 1042.14 C 817.417 1042.83 817.097 1043.59 816.909 1044.3 C 816.281 1046.68 816.278 1047.96 814.906 1050.09 C 814.631 1050.52 814.31 1050.91 814.012 1051.33 C 814.391 1039.4 814.248 1027.56 813.973 1015.64 z"/>
<path transform="translate(0,0)" fill="rgb(252,252,246)" d="M 694.007 985.809 L 730.266 985.686 C 729.821 1006.44 730.03 1027.19 730.891 1047.93 C 737.033 1037.69 744.489 1028.35 751.788 1018.93 C 765.502 1018.45 779.359 1018.96 793.085 1019.09 C 781.111 1031.82 771.023 1046.19 758.834 1058.8 C 765.075 1070.02 772.642 1080.51 779.933 1091.07 C 784.256 1098.05 789.408 1104.57 794.298 1111.17 L 751.231 1110.84 C 747.23 1103.58 742.612 1092.4 736.608 1086.82 C 735.043 1085.36 735.071 1085.39 732.834 1085.56 C 728.418 1091.4 730.116 1103.85 730.281 1111.01 L 694.651 1111.06 C 694.672 1069.31 694.457 1027.56 694.007 985.809 z"/>
<path transform="translate(0,0)" fill="rgb(252,252,246)" d="M 477.421 985.028 C 490.898 985.953 504.837 985.295 518.368 985.323 C 526.039 1000.65 533.457 1016.02 542.24 1030.75 C 548.314 1015.14 556.516 1000.24 564.218 985.387 C 577.257 985.635 590.376 985.248 603.425 985.235 C 594.333 1003.2 583.447 1020.42 573.907 1038.18 C 570.095 1045.16 565.414 1052.11 562.508 1059.5 C 556.463 1074.89 559.103 1094.6 559.48 1111.03 L 522.844 1110.94 C 522.602 1097.73 524.58 1082.96 522.637 1069.98 C 520.406 1055.07 486.506 1002.05 477.421 985.028 z"/>
<path transform="translate(0,0)" fill="rgb(252,252,246)" d="M 619.716 1018.3 C 620.987 1018.16 622.234 1018.03 623.513 1017.96 C 638.531 1017.16 657.574 1016.75 669.339 1027.79 C 673.643 1031.83 676.338 1037.05 677.803 1042.72 C 681.756 1058.03 679.368 1093.29 680.012 1110.97 C 671.577 1110.76 663.138 1111.3 654.709 1111.1 C 651.608 1111.03 648.419 1111.38 646.223 1109.08 C 646.118 1106.67 646.194 1105.12 645.097 1102.9 C 639.754 1103.66 635.728 1107.7 630.897 1109.9 C 621.138 1114.36 610.031 1111.87 600.487 1108.11 C 599.268 1107.28 598.075 1106.4 596.911 1105.49 C 591.211 1100.94 588.516 1094.54 587.997 1087.38 C 587.449 1079.81 588.714 1072.11 594.033 1066.37 C 606.285 1053.15 624.17 1059.15 639.611 1057.31 C 642.41 1056.97 643.526 1056.55 645.198 1054.33 C 644.906 1053.05 644.907 1052.74 644.221 1051.43 C 642.416 1047.99 638.572 1045.35 634.924 1044.37 C 623.229 1041.23 612.146 1046.54 602.16 1052.02 C 598.318 1043.73 593.749 1035.92 589.175 1028.03 C 599.239 1023.21 608.696 1020.04 619.716 1018.3 z"/>
<path transform="translate(0,0)" fill="rgb(234,99,78)" d="M 629.83 1072.15 C 634.895 1071.9 640.038 1072.14 645.11 1072.19 C 645.286 1075.76 646.336 1082.2 644.669 1085.41 C 643.096 1088.45 640.391 1088.93 637.467 1090.15 C 635.232 1090.3 632.605 1090.62 630.406 1090.11 C 627.143 1089.35 623.66 1087.2 622.142 1084.08 C 621.046 1081.83 621.13 1079.44 622.306 1077.23 C 623.82 1074.39 627.032 1073.25 629.83 1072.15 z"/>
<path transform="translate(0,0)" fill="rgb(75,177,136)" d="M 879.018 697.553 C 883.609 699.574 979.825 827.948 991.895 843.689 C 1000.92 833.658 1011.73 824.699 1021.68 815.583 C 1031.96 806.158 1042.04 795.962 1053.18 787.583 C 1087.02 820.237 1118.31 858.375 1150.17 893.17 C 1166.56 881.192 1182.93 867.796 1200.42 857.468 C 1256.7 898.799 1311.67 941.956 1368.09 983.114 L 1271.78 983.965 C 1264.15 979.39 1257.3 973.06 1250.09 967.808 C 1233.58 955.788 1216.99 943.93 1200.66 931.663 C 1185.93 942.382 1141.57 977.736 1129.07 982.386 C 1118.73 986.233 1046.35 984.083 1031.81 982.98 C 1032.35 982.699 1032.87 982.407 1033.41 982.136 C 1042.19 977.72 1049.66 970.728 1057.49 964.817 C 1073.09 953.229 1088.51 941.412 1103.77 929.37 C 1085.17 911.247 1068.33 890.749 1050.97 871.422 C 1032.37 888.983 1013.96 906.744 995.743 924.702 L 978.087 941.261 C 965.251 942.524 951.909 941.867 939.006 941.833 C 919.82 941.779 900.634 941.838 881.449 942.01 C 891.92 932.902 903.261 924.657 914.018 915.867 C 925.529 906.461 936.63 896.055 949.046 887.878 C 939.627 873.06 928.511 859.123 917.935 845.117 C 905.261 828.333 892.737 811.296 879.23 795.173 C 857.777 826.911 833.315 857.593 809.984 888.004 C 834.185 904.762 857.474 923.365 880.578 941.609 C 848.358 941.157 816.005 941.879 783.77 941.962 C 762.04 926.546 741.08 909.861 719.494 894.203 C 704.741 904.24 690.682 915.733 676.306 926.349 C 670.532 930.613 664.245 936.172 657.776 939.198 C 654.033 940.948 649.641 941.541 645.556 941.838 C 635.34 942.583 624.709 941.654 614.449 941.682 C 595.235 941.735 575.361 942.986 556.273 940.924 C 595.739 914.102 633.698 884.504 672.281 856.391 C 687.532 845.28 703.15 831.477 719.768 822.798 C 734.914 831.26 747.775 843.718 762.972 851.771 C 775.603 833.246 789.842 815.741 803.378 797.862 L 879.018 697.553 z"/>
<path transform="translate(0,0)" fill="rgb(75,177,136)" d="M 1448.91 1045.21 C 1450.74 1042.79 1452.58 1040.35 1454.64 1038.12 C 1463.91 1028.06 1475.86 1021.3 1489.79 1021.03 C 1500.97 1020.81 1513.42 1024.18 1521.56 1032.11 C 1527.07 1037.48 1530.42 1044.42 1532.23 1051.83 C 1535.38 1064.78 1534.26 1079.01 1534.39 1092.27 L 1534.69 1153.96 C 1517.23 1154.03 1499.77 1153.98 1482.31 1153.82 C 1482.31 1142.09 1485.03 1079.14 1479.42 1072.78 C 1476.65 1069.65 1471.42 1068.03 1467.33 1067.88 C 1464.1 1067.77 1461.44 1069.07 1459.15 1071.31 C 1456 1074.39 1454.42 1079.35 1453.74 1083.58 C 1451.17 1099.71 1453.38 1136.33 1453.74 1153.94 C 1436.17 1154 1418.61 1153.96 1401.05 1153.81 C 1401.12 1141.17 1403.87 1078.95 1397.88 1071.94 C 1395.67 1069.35 1390.09 1067.21 1386.71 1067.39 C 1383.69 1067.55 1381.3 1068.65 1379.2 1070.78 C 1375.97 1074.08 1374.47 1078.81 1373.77 1083.27 C 1372.42 1092.01 1373.18 1101.56 1373.22 1110.4 L 1373.49 1153.96 L 1321.17 1154.06 L 1321.36 1023.36 L 1373.09 1023.26 L 1374.02 1041.62 C 1383.34 1030.02 1393.11 1023.93 1407.77 1021.24 C 1414.47 1020.95 1421.71 1021.29 1428.08 1023.59 C 1438.92 1027.5 1444.03 1035.44 1448.91 1045.21 z"/>
<path transform="translate(0,0)" fill="rgb(75,177,136)" d="M 884.217 988.493 C 909.604 988.561 936.885 986.209 962.002 989.369 C 979.033 991.512 995.347 998.285 1005.88 1012.41 C 1014.78 1024.34 1017.06 1040.6 1014.44 1055.04 C 1011.16 1073.16 999.823 1083.13 985.461 1092.99 C 997.687 1113.55 1010.4 1133.81 1023.6 1153.76 C 1011.7 1154.32 999.647 1154.03 987.73 1154.06 L 961.962 1154.15 C 953.806 1136.83 941.41 1120.93 935.088 1102.87 L 921.82 1103 L 922.064 1153.93 L 868.352 1154.09 C 869.278 1133.19 868.81 1112.12 868.806 1091.19 L 868.607 988.664 L 884.217 988.493 z"/>
<path transform="translate(0,0)" fill="rgb(252,252,246)" d="M 921.692 1030.12 C 931.85 1029.98 944.773 1028.51 954.007 1033.29 C 957.374 1035.03 960.155 1037.74 961.246 1041.45 C 963.064 1047.63 960.639 1054.71 957.889 1060.21 C 947.909 1066.16 933.346 1064.36 921.959 1064.39 L 921.692 1030.12 z"/>
<path transform="translate(0,0)" fill="rgb(75,177,136)" d="M 1082.74 1020.05 C 1120.95 1015.15 1155.85 1042.26 1160.56 1080.49 C 1165.27 1118.72 1137.99 1153.49 1099.74 1158.02 C 1061.75 1162.51 1027.27 1135.46 1022.59 1097.49 C 1017.91 1059.52 1044.8 1024.91 1082.74 1020.05 z"/>
<path transform="translate(0,0)" fill="rgb(252,252,246)" d="M 1088.04 1060.1 C 1089.99 1060.05 1091.88 1060 1093.81 1060.33 C 1098.16 1061.09 1101.02 1062.9 1103.41 1066.64 C 1109.23 1075.74 1108.86 1092.28 1106.4 1102.61 C 1104.64 1109.99 1101.88 1114.15 1095.37 1118.03 C 1092.89 1118.13 1089.94 1118.46 1087.54 1117.77 C 1084.34 1116.84 1081.61 1114.01 1079.9 1111.27 C 1073.99 1101.8 1074.23 1084.29 1077.06 1073.66 C 1078.98 1066.45 1081.65 1063.74 1088.04 1060.1 z"/>
<path transform="translate(0,0)" fill="rgb(75,177,136)" d="M 1231.67 1020.11 C 1269.66 1015.45 1304.24 1042.44 1308.94 1080.42 C 1313.65 1118.4 1286.7 1153.01 1248.72 1157.76 C 1210.68 1162.52 1176 1135.52 1171.29 1097.47 C 1166.58 1059.43 1193.62 1024.78 1231.67 1020.11 z"/>
<path transform="translate(0,0)" fill="rgb(252,252,246)" d="M 1238.24 1060.16 C 1240.64 1060.32 1243.08 1060.46 1245.35 1061.35 C 1249.18 1062.84 1251.67 1066.67 1253.17 1070.32 C 1257.31 1080.4 1256.88 1099.07 1252.58 1109.12 C 1250.28 1114.48 1247.62 1116.28 1242.35 1118.48 C 1241.94 1118.44 1241.52 1118.4 1241.11 1118.37 C 1238.88 1118.22 1236.41 1118.26 1234.32 1117.4 C 1229.52 1115.43 1226.51 1109.79 1225.05 1105.11 C 1221.88 1094.94 1222.37 1076.95 1227.64 1067.74 C 1230.21 1063.24 1233.37 1061.49 1238.24 1060.16 z"/>
<path transform="translate(0,0)" fill="rgb(75,177,136)" d="M 1595.45 1021.27 C 1619.75 1019.6 1638.71 1025.18 1660.74 1035.05 C 1653.52 1046.33 1647.65 1058.27 1641.6 1070.2 C 1632.35 1064.05 1616.35 1055.73 1605.15 1055.73 C 1601.83 1055.73 1598.95 1056.39 1596.62 1058.76 L 1596.82 1061.2 C 1601.56 1067.51 1635.26 1073.42 1649.24 1084.22 C 1656.18 1089.58 1659.89 1098.1 1660.76 1106.69 C 1661.94 1118.29 1658.52 1130.43 1650.99 1139.39 C 1640.59 1151.79 1625.08 1154.72 1609.82 1156.22 C 1583.62 1157.31 1564.1 1149.58 1541.71 1136.93 C 1548.21 1126.68 1554.51 1116.31 1560.6 1105.82 C 1573.51 1111.65 1585.38 1118.29 1599.56 1120.56 C 1603.85 1121.24 1607.58 1121.97 1611.27 1119.34 C 1611.93 1117.12 1612.07 1115.9 1611.65 1113.62 C 1602.4 1105.9 1577.5 1105.02 1563.52 1095.38 C 1555.98 1090.17 1550.8 1083.17 1549.38 1074 C 1547.65 1062.88 1549.93 1049.74 1556.76 1040.59 C 1565.96 1028.27 1580.92 1023.51 1595.45 1021.27 z"/>
<path transform="translate(0,0)" fill="rgb(75,177,136)" d="M 1360.68 1178.52 C 1370.56 1178.4 1384.82 1177.24 1392.32 1185.22 C 1394.52 1187.56 1395.34 1190.43 1394.98 1193.58 C 1394.45 1198.23 1392.92 1200.91 1389.19 1203.73 C 1388.9 1203.95 1388.61 1204.15 1388.32 1204.36 C 1388 1209.36 1397.07 1212.89 1396.82 1220.08 C 1396.64 1225.2 1393.71 1229.21 1390.08 1232.52 C 1378.27 1237 1364.75 1235.89 1352.3 1235.91 C 1352.73 1217.56 1351.07 1198.05 1353.39 1179.91 C 1355.72 1178.2 1357.86 1178.64 1360.68 1178.52 z"/>
<path transform="translate(0,0)" fill="rgb(252,252,246)" d="M 1364.49 1211.01 C 1368.75 1211.02 1373.13 1210.87 1377.37 1211.17 C 1380.59 1211.39 1381.96 1212.43 1383.94 1214.86 C 1384.76 1218 1384.03 1220.55 1383.36 1223.63 C 1377.29 1225.21 1370.99 1225.01 1364.76 1225.14 L 1364.49 1211.01 z"/>
<path transform="translate(0,0)" fill="rgb(252,252,246)" d="M 1364.78 1188.88 C 1370.02 1188.96 1376.5 1188.09 1380.95 1191.11 C 1382.9 1193.97 1382.22 1196.81 1381.94 1200.06 C 1376.39 1201.21 1370.46 1201.13 1364.81 1201.42 L 1364.78 1188.88 z"/>
<path transform="translate(0,0)" fill="rgb(75,177,136)" d="M 1570.22 1204.61 C 1568.4 1202.57 1567.47 1201.57 1566.87 1198.81 C 1567.83 1196.45 1568.42 1195.45 1570.83 1194.36 C 1577.1 1191.52 1587.01 1192 1593.15 1195 C 1595.88 1196.33 1597.24 1198.11 1598.12 1201 C 1601.24 1211.37 1599.76 1224.96 1599.98 1235.78 C 1595.62 1235.87 1590.56 1236.86 1587.09 1233.79 C 1586.74 1233.48 1586.42 1233.14 1586.09 1232.82 C 1580.52 1234.39 1573.48 1237.57 1568.01 1234.65 C 1564.53 1230.9 1563.86 1226.34 1564.1 1221.32 C 1564.27 1217.81 1565.9 1215.06 1568.54 1212.85 C 1570.05 1211.58 1571.66 1210.46 1573.29 1209.36 C 1572.68 1207.08 1571.92 1206.23 1570.22 1204.61 z"/>
<path transform="translate(0,0)" fill="rgb(252,252,246)" d="M 1570.22 1204.61 C 1576.5 1202.92 1580.09 1201.45 1586.32 1204.36 L 1587.54 1206.35 C 1586.37 1208.26 1585.93 1208.83 1583.49 1209.26 C 1580.43 1209.79 1576.4 1209.44 1573.29 1209.36 C 1572.68 1207.08 1571.92 1206.23 1570.22 1204.61 z"/>
<path transform="translate(0,0)" fill="rgb(252,252,246)" d="M 1580.18 1215.94 C 1581.98 1215.93 1583.78 1216.07 1585.58 1216.16 C 1587.71 1218.1 1587.65 1217.98 1587.88 1220.86 C 1586.45 1224.24 1584.99 1225.62 1582.11 1227.85 C 1580.8 1227.38 1579.21 1226.92 1578 1226.2 C 1575.71 1224.82 1575.09 1223.5 1574.38 1221.04 C 1575.93 1217.79 1577.09 1217.63 1580.18 1215.94 z"/>
<path transform="translate(0,0)" fill="rgb(75,177,136)" d="M 1278.44 1192.22 C 1281.74 1192.03 1284.82 1191.93 1287.97 1193.13 C 1293.17 1195.1 1298.12 1199.61 1300.13 1204.85 C 1301.47 1208.34 1301.82 1212.75 1300.25 1216.2 C 1292.07 1218.7 1282.48 1215.56 1274.56 1218.28 C 1272.63 1218.94 1273.32 1218.45 1272.41 1220.44 C 1273.46 1222.45 1275.68 1224.2 1277.69 1225.21 C 1283.25 1228.03 1289.92 1225.29 1295.5 1223.72 C 1296 1224.3 1296.59 1224.92 1296.94 1225.6 C 1298.13 1227.86 1298.11 1228.51 1297.33 1230.75 C 1294.4 1233.09 1291.3 1234.81 1287.73 1236.04 C 1282.92 1237.67 1277.66 1237.32 1273.11 1235.06 C 1267.79 1232.37 1263.8 1227.63 1262.07 1221.93 C 1260.04 1215.44 1260.66 1208.01 1264.12 1202.12 C 1267.6 1196.19 1272.01 1193.96 1278.44 1192.22 z"/>
<path transform="translate(0,0)" fill="rgb(252,252,246)" d="M 1278.2 1201.74 C 1279.31 1201.71 1280.38 1201.7 1281.49 1201.8 C 1284.68 1202.09 1287.6 1203.57 1289.48 1206.21 C 1290.46 1207.58 1290.18 1207.2 1289.77 1208.88 L 1287.16 1210.04 C 1283.04 1210.2 1276.95 1211.25 1273.82 1208.4 C 1274.52 1205.26 1276.07 1204.1 1278.2 1201.74 z"/>
<path transform="translate(0,0)" fill="rgb(75,177,136)" d="M 1190.01 1193.18 C 1194.61 1192.58 1199.46 1192.34 1204.05 1193.22 C 1206.73 1193.73 1210.77 1195.16 1212.11 1197.73 C 1216.35 1205.86 1216.73 1226.87 1214.73 1235.38 L 1211.96 1236.78 C 1208.27 1236.82 1207.11 1235.6 1204.03 1234.14 C 1200.9 1232.67 1200 1233.5 1196.95 1234.82 C 1193.06 1236.5 1190.71 1236.18 1186.51 1235.68 C 1185.21 1234.78 1183.7 1233.82 1182.6 1232.68 C 1179.85 1229.86 1179.27 1225.09 1179.39 1221.27 C 1179.89 1206.21 1196.61 1212.98 1203.19 1206.47 L 1202.61 1204.24 C 1196.35 1200.68 1189.63 1205.03 1183.25 1202.42 C 1181.47 1201.69 1182.12 1202.09 1181.18 1200.1 C 1181.43 1199.5 1181.6 1198.87 1181.92 1198.31 C 1183.58 1195.46 1187.14 1194.33 1190.01 1193.18 z"/>
<path transform="translate(0,0)" fill="rgb(252,252,246)" d="M 1200.29 1215.08 C 1202.61 1215.94 1202.6 1216.19 1203.92 1218.32 C 1203.61 1221.19 1203.49 1222.22 1201.45 1224.47 C 1199.14 1227.01 1196.35 1227.04 1193.18 1227.29 C 1191.98 1226.24 1190.54 1224.9 1189.82 1223.46 C 1188.83 1221.47 1189.52 1220.51 1190.42 1218.79 C 1193.57 1216.39 1196.46 1215.87 1200.29 1215.08 z"/>
<path transform="translate(0,0)" fill="rgb(75,177,136)" d="M 1404.03 1176.83 C 1408.07 1176.93 1410.79 1176.6 1414.04 1179.09 C 1414.94 1181.11 1415.38 1182.37 1415.25 1184.6 C 1415 1188.67 1415.02 1192.73 1414.99 1196.82 C 1416.17 1195.98 1417.37 1195.2 1418.62 1194.48 C 1421.91 1192.56 1426.98 1191.82 1430.65 1192.97 C 1433.81 1193.96 1436.25 1196.46 1437.69 1199.37 C 1441.92 1207.91 1441.8 1226.25 1438.77 1235.16 C 1437.91 1235.63 1437.67 1235.84 1436.58 1236.01 C 1433.74 1236.45 1431.95 1235.76 1429.86 1234.06 C 1427.69 1228.75 1428.91 1221.47 1429.02 1215.75 C 1429.03 1213.2 1429.17 1209.3 1428.17 1206.96 C 1427.24 1204.76 1426.28 1204.5 1424.08 1203.98 C 1421.2 1203.29 1419.35 1203.82 1416.87 1205.29 C 1411.54 1213.25 1416.9 1223.24 1414.12 1231.65 C 1413.2 1234.44 1412.6 1234.7 1410.2 1236.07 C 1407.45 1236.06 1406.3 1236.68 1404.21 1234.69 C 1402.69 1215.76 1403.98 1195.87 1404.03 1176.83 z"/>
<path transform="translate(0,0)" fill="rgb(75,177,136)" d="M 1627.39 1192.08 C 1632.8 1192.07 1637.96 1192.46 1641.93 1196.56 C 1648.24 1203.09 1645.76 1226.08 1644.97 1235.04 C 1642.55 1236.63 1637.39 1236.19 1634.38 1236.33 C 1633.92 1229.24 1634.78 1222.14 1634.31 1215.08 C 1634.02 1210.66 1633.67 1206.92 1630.12 1203.87 C 1627.08 1203.04 1625.59 1203.67 1622.81 1204.77 C 1616.8 1213.86 1620.19 1223.78 1618.64 1233.97 C 1617.15 1235.91 1616.27 1236.53 1613.99 1237.39 C 1612.68 1237.07 1612.03 1237.13 1611.06 1236.07 C 1605.57 1230.08 1607.61 1211.16 1607.82 1203.2 C 1607.9 1200.19 1607.48 1195.44 1609.66 1193.36 C 1613.13 1192.95 1615.88 1192.85 1619.33 1193.45 L 1620.53 1198.5 C 1622.74 1196.23 1624.98 1194.13 1627.39 1192.08 z"/>
<path transform="translate(0,0)" fill="rgb(75,177,136)" d="M 1448.22 1192.75 C 1451.66 1192.51 1456.29 1191.87 1459.05 1194.01 C 1460.75 1201.59 1458.41 1209.75 1459.12 1217.51 C 1459.43 1220.92 1460.23 1222.51 1462.89 1224.6 C 1465.63 1224.83 1468.52 1224.39 1470.79 1222.67 C 1477.32 1217.7 1472.58 1201.65 1474.46 1194.08 C 1476 1192.58 1476.97 1192.25 1479.22 1192.41 C 1481.97 1192.59 1483.02 1193.56 1484.89 1195.3 C 1485.5 1199.07 1485.19 1202.95 1485.07 1206.75 C 1485.16 1216.01 1485.96 1225.88 1484.63 1235.04 C 1482.75 1236.62 1482.49 1236.64 1480.04 1236.89 C 1477.45 1235.84 1476.24 1234.73 1474.44 1232.68 C 1474.24 1232.45 1474.04 1232.22 1473.84 1231.99 C 1470.93 1231.55 1467.36 1235.86 1464.09 1236.33 C 1460.07 1236.92 1454.91 1235.27 1452.18 1232.24 C 1444.93 1224.2 1447.97 1203.36 1448.22 1192.75 z"/>
<path transform="translate(0,0)" fill="rgb(75,177,136)" d="M 1515.46 1192.08 C 1517.33 1192.24 1519.3 1192.43 1521.12 1192.92 C 1523.86 1193.66 1526.04 1195.82 1527.35 1198.27 C 1531.98 1206.92 1532.19 1225.88 1529.22 1235.03 C 1526.43 1236.46 1522.26 1235.9 1519.13 1235.85 C 1518.98 1227.9 1520.66 1218.21 1518.87 1210.52 C 1518.11 1207.21 1516.92 1205.84 1514.14 1204 C 1510.91 1203.64 1508.93 1204.16 1505.88 1205.22 C 1503.67 1213.31 1507.18 1229.99 1503.88 1235.56 C 1500.46 1235.83 1497.66 1235.82 1494.29 1235.21 C 1492.56 1230.41 1492.84 1197.38 1494.58 1193.16 L 1497.3 1192.17 C 1500.19 1192.43 1502.08 1193.79 1504.49 1195.27 L 1505.6 1195.96 C 1508.83 1194.54 1512.12 1193.24 1515.46 1192.08 z"/>
<path transform="translate(0,0)" fill="rgb(75,177,136)" d="M 1105.88 1178.51 C 1119.85 1178.36 1135.55 1176.97 1149.25 1179.54 C 1149.53 1180.1 1149.91 1180.63 1150.08 1181.23 C 1150.71 1183.41 1150.01 1186.46 1148.7 1188.11 C 1143.71 1189.86 1137.68 1189.04 1132.44 1188.92 C 1132.87 1199.9 1132.73 1210.83 1132.54 1221.81 L 1132.7 1235.92 L 1120.9 1236.27 L 1120.85 1188.76 C 1116.17 1188.8 1109.42 1189.98 1105.37 1187.69 C 1103.66 1184.67 1104 1183.35 1104.09 1179.94 L 1105.88 1178.51 z"/>
<path transform="translate(0,0)" fill="rgb(75,177,136)" d="M 1219 1192.54 C 1221.64 1192.5 1225.97 1192.04 1228.33 1193.08 C 1234.7 1195.86 1237.48 1215.93 1239.43 1222.29 C 1242.36 1212.58 1245.18 1202.83 1247.88 1193.05 L 1260.51 1193.3 C 1258.7 1197.03 1257.19 1200.93 1255.6 1204.75 C 1251.91 1215.09 1248.33 1225.47 1244.86 1235.89 L 1233.92 1235.96 C 1228.8 1221.57 1223.3 1207.19 1219 1192.54 z"/>
<path transform="translate(0,0)" fill="rgb(75,177,136)" d="M 1550.96 1181.45 C 1553.81 1183.66 1551.19 1189.52 1553.62 1192.66 C 1556.01 1192.8 1558.33 1192.71 1560.46 1193.93 C 1560.82 1196.47 1561.19 1197.75 1559.92 1200.11 C 1557.89 1201.23 1555.21 1202.45 1553.93 1204.46 C 1551.08 1208.96 1552.35 1219.22 1553.5 1224.24 C 1555.81 1225.32 1558.73 1226.37 1560.61 1228.1 C 1562.19 1229.56 1562.07 1230.36 1562.25 1232.36 C 1559.58 1234.72 1557.65 1235.14 1554.28 1235.93 C 1552.28 1235.92 1550.17 1236.01 1548.24 1235.37 C 1535.32 1231.11 1544.85 1211.66 1540.48 1202.48 L 1537.19 1201.49 C 1535.34 1199.3 1535.89 1198.75 1535.88 1195.99 C 1537.42 1193.49 1538.33 1193.76 1541.09 1193.03 C 1542.47 1190.43 1541.18 1186.19 1541.39 1183.09 C 1544.04 1181.41 1547.83 1181.66 1550.96 1181.45 z"/>
<path transform="translate(0,0)" fill="rgb(75,177,136)" d="M 1307.25 1176.79 C 1310.39 1176.8 1313.18 1176.93 1316.25 1177.58 C 1321.33 1184.85 1315.43 1212.73 1318.77 1224.22 C 1320.46 1224.9 1322.04 1225.7 1323.65 1226.56 C 1325.65 1229.51 1324.91 1233.04 1324.73 1236.44 C 1319.48 1236.24 1313.08 1236.21 1309.42 1231.76 C 1304.41 1225.67 1307.1 1186.63 1307.25 1176.79 z"/>
<path transform="translate(0,0)" fill="rgb(75,177,136)" d="M 1152.97 1192.77 C 1169.68 1192.49 1160.61 1193.89 1165.91 1198.34 C 1166.41 1197.84 1166.91 1197.35 1167.41 1196.87 C 1170.01 1194.38 1171.8 1193.02 1175.47 1193.09 L 1177.22 1195.02 C 1177.99 1198.27 1177.79 1200.45 1177.21 1203.72 C 1174.39 1204.51 1170.3 1205.25 1167.85 1206.84 C 1165.5 1208.36 1164.99 1210.44 1164.32 1212.96 C 1164.24 1213.27 1164.16 1213.57 1164.09 1213.87 C 1164.1 1219.29 1164.63 1225.25 1164.11 1230.6 C 1163.87 1233.06 1163.45 1234.34 1161.59 1236.03 C 1158.39 1236.01 1156.46 1236.41 1153.65 1234.78 C 1151.34 1221.51 1152.88 1206.31 1152.97 1192.77 z"/>
<path transform="translate(0,0)" fill="rgb(252,252,246)" d="M 336.312 1999.51 C 340.847 2001.42 338.044 2002.78 339.548 2006.27 L 341.12 2006.03 C 341.855 2004.22 342.46 2002.92 343.57 2001.29 C 345.958 2000.54 346.316 1999.89 348.716 2000.89 C 348.261 2002.44 347.903 2003.95 347.599 2005.54 C 349.936 2007.27 351.884 2005.69 354.67 2006.87 C 354.597 2008.62 354.296 2010.9 354.64 2012.6 C 355.105 2014.91 355.596 2015.32 357.474 2016.58 C 362.595 2014.19 359.084 2010.51 360.895 2006.34 C 363.072 2006.35 363.047 2005.9 364.707 2007.52 C 364.784 2011.22 364.919 2014.82 364.385 2018.49 C 361.939 2020.15 359.671 2019.69 356.769 2019.79 L 353.397 2019.41 C 350.733 2016.99 351.134 2014.18 350.044 2011.01 C 349.546 2009.57 349.845 2010.2 347.979 2009.3 C 345.414 2012.55 347.473 2015.88 346.003 2019.62 C 343.449 2019.25 343.122 2019.77 341.452 2017.64 C 341.716 2015.6 342.153 2013.52 341.624 2011.5 C 341.277 2010.17 340.27 2009.95 339.19 2009.26 C 337.239 2011.93 337.79 2016.18 336.519 2019.45 L 334.249 2019.31 C 332.629 2017.44 331.956 2016.53 331.879 2013.99 C 331.697 2007.98 332.238 2003.97 336.312 1999.51 z"/>
<path transform="translate(0,0)" fill="rgb(252,252,246)" d="M 306.49 2002.49 C 309.899 2002.39 313.71 2002.02 316.934 2003.35 C 319.46 2004.4 322.002 2006.37 322.54 2009.19 C 323.165 2012.46 321.628 2015.15 320.054 2017.85 C 315.877 2020.34 311.176 2019.65 306.49 2019.58 L 306.49 2002.49 z"/>
<path transform="translate(0,0)" fill="rgb(214,212,204)" d="M 311.005 2005.44 C 313.225 2005.73 314.714 2006.37 316.705 2007.38 C 318.492 2009.97 318.035 2012.5 317.892 2015.48 C 315.696 2015.99 314.318 2016.35 312.113 2015.75 C 310.252 2012.67 310.959 2009.01 311.005 2005.44 z"/>
<path transform="translate(0,0)" fill="rgb(252,252,246)" d="M 382.412 2005.59 L 385.507 2006.79 L 387.635 2011.64 C 391.383 2009.48 394.567 2005 399.316 2005.13 C 400.834 2005.17 401.186 2006.21 402.113 2007.26 C 403.037 2011.95 403.627 2013.41 402.015 2017.82 C 399.847 2019.43 398.059 2019.57 395.467 2019.88 C 391.278 2020.36 390.32 2015.81 387.526 2013.57 C 386.857 2016.01 386.269 2017.82 384.938 2020.02 L 383.281 2019.98 C 381.35 2017.12 382.412 2009.26 382.412 2005.59 z"/>
<path transform="translate(0,0)" fill="rgb(252,252,246)" d="M 406.284 2006.32 L 419.5 2006.54 C 419.607 2008.99 419.811 2011.59 419.626 2014.04 C 419.441 2016.5 419.093 2018.35 417.195 2019.98 C 415.208 2017.71 415.11 2015.77 414.76 2012.91 C 415.321 2011.41 415.015 2011.12 414.665 2009.62 L 413.097 2008.79 C 409.677 2011.27 409.223 2015.8 407.23 2019.51 C 407.582 2018.01 407.843 2016.59 407.997 2015.06 L 405.902 2014.63 C 406.147 2011.86 406.202 2009.09 406.284 2006.32 z"/>
<path transform="translate(0,0)" fill="rgb(252,252,246)" d="M 325.952 2004.37 L 328.654 2005.32 C 331.009 2009.55 329.792 2016.03 329.462 2020.76 L 326.096 2019.48 C 324.298 2014.24 325.236 2009.76 325.952 2004.37 z"/>
</svg>